<?xml version="1.0" encoding="utf-8"?>
<!-- Generator: Adobe Illustrator 24.3.0, SVG Export Plug-In . SVG Version: 6.00 Build 0)  -->
<svg version="1.1" id="Layer_1" xmlns="http://www.w3.org/2000/svg" xmlns:xlink="http://www.w3.org/1999/xlink" x="0px" y="0px"
	 viewBox="0 0 40 8.9" style="enable-background:new 0 0 40 8.9;" xml:space="preserve">
<style type="text/css">
	.st0{fill:none;}
	.st1{fill:#DB2128;}
	.st2{enable-background:new    ;}
	.st3{fill:#FFFFFF;}
</style>
<g id="Layer_3_1_">
	<g id="Layer_2_1_">
		<polyline class="st0" points="0,0 42.2,0 40.5,8.9 0,8.9 		"/>
	</g>
	<g id="Layer_4">
		<polygon class="st1" points="0,0 40.6,0 40.5,8.9 0,8.9 		"/>
	</g>
</g>
<g id="Layer_2_2_">
	<rect x="2" y="1.1" class="st0" width="84" height="12"/>
	<g class="st2">
		<path class="st3" d="M2.6,1.9h1.9c0.2,0,0.4,0,0.6,0.1c0.2,0,0.3,0.1,0.5,0.2c0.1,0.1,0.3,0.2,0.3,0.4C6,2.8,6,2.9,6,3.2
			c0,0.3-0.1,0.5-0.2,0.7C5.6,4,5.4,4.2,5.1,4.3v0c0.2,0,0.3,0.1,0.4,0.1c0.1,0.1,0.2,0.2,0.3,0.3C6,4.8,6.1,4.9,6.1,5
			s0.1,0.3,0.1,0.4c0,0.3-0.1,0.5-0.2,0.7C5.9,6.3,5.8,6.5,5.6,6.6C5.5,6.7,5.3,6.8,5,6.8c-0.2,0-0.5,0.1-0.7,0.1H2.6V1.9z M3.4,3.9
			h0.8c0.3,0,0.5-0.1,0.7-0.2s0.2-0.3,0.2-0.5c0-0.2-0.1-0.4-0.2-0.5C4.7,2.7,4.5,2.7,4.2,2.7H3.4V3.9z M3.4,6.1h0.8
			c0.1,0,0.2,0,0.4,0c0.1,0,0.2,0,0.4-0.1s0.2-0.1,0.3-0.2s0.1-0.2,0.1-0.4c0-0.3-0.1-0.4-0.3-0.5C4.9,4.7,4.6,4.7,4.3,4.7H3.4V6.1z
			"/>
		<path class="st3" d="M7.1,1.9h1.7c0.2,0,0.5,0,0.7,0.1c0.2,0,0.4,0.1,0.6,0.2c0.2,0.1,0.3,0.3,0.4,0.4c0.1,0.2,0.2,0.4,0.2,0.7
			c0,0.4-0.1,0.7-0.3,0.9c-0.2,0.2-0.5,0.4-0.9,0.4l1.3,2.2H9.8L8.6,4.8H8v2.1H7.1V1.9z M8.7,4C8.8,4,8.9,4,9,4c0.1,0,0.2,0,0.3-0.1
			c0.1,0,0.2-0.1,0.3-0.2c0.1-0.1,0.1-0.2,0.1-0.4c0-0.1,0-0.3-0.1-0.3C9.6,2.9,9.5,2.8,9.4,2.8c-0.1,0-0.2-0.1-0.3-0.1
			c-0.1,0-0.2,0-0.3,0H8V4H8.7z"/>
		<path class="st3" d="M11.5,1.9h3.3v0.8h-2.4v1.2h2.3v0.8h-2.3v1.3h2.5v0.8h-3.4V1.9z"/>
		<path class="st3" d="M17.4,1.9h0.8l2.1,5h-1l-0.5-1.1h-2.1l-0.4,1.1h-1L17.4,1.9z M18.5,5l-0.8-2L17,5H18.5z"/>
		<path class="st3" d="M20.8,1.9h0.9V4h0l2.1-2.1H25l-2.3,2.3l2.5,2.7h-1.2l-2.1-2.4h0v2.4h-0.9V1.9z"/>
		<path class="st3" d="M25.6,1.9h0.9v5h-0.9V1.9z"/>
		<path class="st3" d="M27.6,1.9h1.2l2.4,3.7h0V1.9H32v5h-1.1l-2.4-3.8h0v3.8h-0.9V1.9z"/>
		<path class="st3" d="M37.5,6.5C36.9,6.8,36.3,7,35.5,7c-0.4,0-0.7-0.1-1.1-0.2c-0.3-0.1-0.6-0.3-0.8-0.5c-0.2-0.2-0.4-0.5-0.5-0.8
			c-0.1-0.3-0.2-0.7-0.2-1.1c0-0.4,0.1-0.8,0.2-1.1c0.1-0.3,0.3-0.6,0.5-0.8s0.5-0.4,0.8-0.5c0.3-0.1,0.7-0.2,1.1-0.2
			c0.4,0,0.7,0,1.1,0.1c0.3,0.1,0.6,0.3,0.9,0.5l-0.7,0.7c-0.2-0.2-0.4-0.3-0.6-0.4c-0.2-0.1-0.5-0.1-0.7-0.1c-0.3,0-0.5,0-0.7,0.1
			s-0.4,0.2-0.5,0.4c-0.1,0.2-0.3,0.3-0.3,0.6s-0.1,0.4-0.1,0.7c0,0.3,0,0.5,0.1,0.7c0.1,0.2,0.2,0.4,0.3,0.6
			c0.1,0.2,0.3,0.3,0.5,0.4c0.2,0.1,0.4,0.1,0.7,0.1c0.2,0,0.4,0,0.6-0.1s0.4-0.1,0.5-0.2V4.8h-1V4h1.9V6.5z"/>
	</g>
</g>
</svg>
